<?xml version="1.0" encoding="UTF-8" standalone="no"?><!DOCTYPE svg PUBLIC "-//W3C//DTD SVG 1.1//EN" "http://www.w3.org/Graphics/SVG/1.1/DTD/svg11.dtd"><svg width="100%" height="100%" viewBox="0 0 64 64" version="1.1" xmlns="http://www.w3.org/2000/svg" xmlns:xlink="http://www.w3.org/1999/xlink" xml:space="preserve" xmlns:serif="http://www.serif.com/" style="fill-rule:evenodd;clip-rule:evenodd;stroke-linecap:square;stroke-miterlimit:10;"><g><clipPath id="_clip1"><rect id="responsive" x="-0.327" y="-0.049" width="64" height="64"/></clipPath><g clip-path="url(#_clip1)"><g><path d="M7.673,47.951l-6,0l0,-40l32,0" style="fill:none;stroke:#96858f;stroke-width:2px;"/><path d="M55.673,7.951l6,0l0,40l-40,0" style="fill:none;stroke:#96858f;stroke-width:2px;"/><path d="M21.673,59.951l20,0" style="fill:none;stroke:#96858f;stroke-width:2px;"/><path d="M54.673,31.951l-20,0c-0.6,0 -1,-0.4 -1,-1l0,-28c0,-0.6 0.4,-1 1,-1l20,0c0.6,0 1,0.4 1,1l0,28c0,0.6 -0.4,1 -1,1Z" style="fill:none;stroke:#6d7993;stroke-width:2px;"/><path d="M43.673,25.951l2,0" style="fill:none;stroke:#6d7993;stroke-width:2px;"/><path d="M20.673,53.951l-12,0c-0.6,0 -1,-0.4 -1,-1l0,-22c0,-0.6 0.4,-1 1,-1l12,0c0.6,0 1,0.4 1,1l0,22c0,0.6 -0.4,1 -1,1Z" style="fill:none;stroke:#6d7993;stroke-width:2px;"/><path d="M13.673,47.951l2,0" style="fill:none;stroke:#6d7993;stroke-width:2px;"/><rect x="27.673" y="55.951" width="8" height="4" style="fill:none;stroke:#96858f;stroke-width:2px;"/></g></g></g></svg>