<?xml version="1.0" encoding="UTF-8" standalone="no"?><!DOCTYPE svg PUBLIC "-//W3C//DTD SVG 1.1//EN" "http://www.w3.org/Graphics/SVG/1.1/DTD/svg11.dtd"><svg width="100%" height="100%" viewBox="0 0 64 64" version="1.1" xmlns="http://www.w3.org/2000/svg" xmlns:xlink="http://www.w3.org/1999/xlink" xml:space="preserve" xmlns:serif="http://www.serif.com/" style="fill-rule:evenodd;clip-rule:evenodd;stroke-linecap:square;stroke-miterlimit:10;"><g><clipPath id="_clip1"><rect id="robot" x="0.196" y="-0.049" width="64" height="64"/></clipPath><g clip-path="url(#_clip1)"><g><path d="M57.196,21.951c0,-2.208 -1.792,-4 -4,-4l-42,0c-2.207,0 -4,1.792 -4,4l0,36c0,2.208 1.793,4 4,4l42,0c2.208,0 4,-1.792 4,-4l0,-36Z" style="fill:none;stroke:#6d7993;stroke-width:2px;"/><path d="M2.196,34.951l0,10" style="fill:none;stroke:#6d7993;stroke-width:2px;"/><path d="M62.196,34.951l0,10" style="fill:none;stroke:#6d7993;stroke-width:2px;"/><circle cx="18.196" cy="5.951" r="4" style="fill:none;stroke:#6d7993;stroke-width:2px;"/><path d="M18.196,9.951l0,8" style="fill:none;stroke:#6d7993;stroke-width:2px;stroke-linecap:butt;"/><circle cx="46.196" cy="5.951" r="4" style="fill:none;stroke:#6d7993;stroke-width:2px;"/><path d="M46.196,9.951l0,8" style="fill:none;stroke:#6d7993;stroke-width:2px;stroke-linecap:butt;"/><rect x="15.196" y="43.951" width="34" height="10" style="fill:none;stroke:#96858f;stroke-width:2px;"/><circle cx="20.196" cy="31.951" r="5" style="fill:none;stroke:#96858f;stroke-width:2px;"/><circle cx="44.196" cy="31.951" r="5" style="fill:none;stroke:#96858f;stroke-width:2px;"/></g></g></g></svg>